Coordinates
version=1
nRows=11
nColumns=63
inDegrees=yes

Units are S.I. units (second, meters, Newtons, ...)
If the header above contains a line with 'inDegrees', this indicates whether rotational values are in degrees (yes) or radians (no).

endheader
time	pelvis_tilt	pelvis_list	pelvis_rotation	pelvis_tx	pelvis_ty	pelvis_tz	hip_flexion_r	hip_adduction_r	hip_rotation_r	knee_angle_r	knee_angle_r_beta	ankle_angle_r	subtalar_angle_r	mtp_angle_r	hip_flexion_l	hip_adduction_l	hip_rotation_l	knee_angle_l	knee_angle_l_beta	ankle_angle_l	subtalar_angle_l	mtp_angle_l	L5_S1_Flex_Ext	L5_S1_Lat_Bending	L5_S1_axial_rotation	L4_L5_Flex_Ext	L4_L5_Lat_Bending	L4_L5_axial_rotation	L3_L4_Flex_Ext	L3_L4_Lat_Bending	L3_L4_axial_rotation	L2_L3_Flex_Ext	L2_L3_Lat_Bending	L2_L3_axial_rotation	L1_L2_Flex_Ext	L1_L2_Lat_Bending	L1_L2_axial_rotation	L1_T12_Flex_Ext	L1_T12_Lat_Bending	L1_T12_axial_rotation	Abs_r3	Abs_r2	Abs_r1	Abs_t1	Abs_t2	neck_flexion	neck_bending	neck_rotation	arm_flex_r	arm_add_r	arm_rot_r	elbow_flex_r	pro_sup_r	wrist_flex_r	wrist_dev_r	arm_flex_l	arm_add_l	arm_rot_l	elbow_flex_l	pro_sup_l	wrist_flex_l	wrist_dev_l
1.508475	3.632889	-3.204939	92.370703	0.197834	0.936617	0.628985	0.175876	-0.023141	-5.354760	2.395576	0.041811	23.580082	10.635411	0.000000	2.573139	1.197983	4.376088	5.467486	0.095426	21.238220	-6.891805	0.000000	0.131165	-0.039171	-2.296284	0.243587	-0.052098	-2.439802	0.215491	-0.095241	-2.439802	0.149909	-0.095241	-2.009249	0.121800	-0.079878	-1.865731	0.074948	-0.060676	-1.722213	0.936899	-0.443114	-12.771245	0.000000	0.000000	12.827641	1.460225	13.826380	13.126082	-10.191831	79.672532	23.876894	45.904072	0.105251	-2.992511	-6.352460	-13.665136	25.488529	36.618476	81.897182	-8.549143	1.688046
1.525424	3.650881	-3.099647	92.341666	0.198216	0.936705	0.627795	-0.069045	0.031177	-5.143259	2.332056	0.040702	23.495788	10.298960	0.000000	2.294885	1.155759	4.550284	5.289142	0.092313	21.118512	-7.184529	0.000000	0.130834	-0.043539	-2.317825	0.242972	-0.057907	-2.462689	0.214947	-0.105862	-2.462689	0.149530	-0.105862	-2.028097	0.121492	-0.088786	-1.883233	0.074759	-0.067443	-1.738369	0.934534	-0.492526	-12.891048	0.000000	0.000000	12.468903	1.478044	14.173544	13.332084	-10.107342	81.190224	23.834391	44.865511	0.061022	-3.180927	-6.660802	-13.592956	24.953838	36.703290	82.200804	-8.622428	1.608978
1.542373	3.666111	-2.988089	92.323607	0.198593	0.936811	0.626675	-0.315959	0.081601	-4.945626	2.265978	0.039549	23.396253	9.930003	0.000000	2.026560	1.107011	4.558350	5.129214	0.089522	21.055745	-7.204756	0.000000	0.129555	-0.049336	-2.335713	0.240596	-0.065616	-2.481695	0.212845	-0.119954	-2.481695	0.148068	-0.119954	-2.043749	0.120304	-0.100605	-1.897767	0.074028	-0.076421	-1.751785	0.925396	-0.558094	-12.990534	0.000000	0.000000	12.061786	1.486036	14.466391	13.544750	-10.017230	82.792759	23.776880	43.728198	-0.069126	-3.419508	-6.974127	-13.520668	24.370337	36.827623	82.526911	-8.727055	1.560709
1.559322	3.679140	-2.880676	92.331387	0.198926	0.936911	0.625636	-0.556983	0.130207	-4.635840	2.187186	0.038174	23.257241	9.343817	0.000000	1.767784	1.065587	4.702699	4.963385	0.086627	20.935290	-7.370550	0.000000	0.128659	-0.056192	-2.356134	0.238933	-0.074736	-2.503392	0.211374	-0.136626	-2.503392	0.147045	-0.136626	-2.061617	0.119473	-0.114587	-1.914359	0.073516	-0.087042	-1.767101	0.919001	-0.635657	-13.104111	0.000000	0.000000	11.622677	1.499380	14.723672	13.808357	-9.913138	84.728857	23.710953	42.229125	-0.297126	-3.759180	-7.308863	-13.435217	23.668413	36.997799	82.913364	-8.811537	1.578500
1.576271	3.689979	-2.773899	92.348587	0.199222	0.937035	0.624726	-0.785218	0.173569	-4.357056	2.104644	0.036733	23.106856	8.774580	0.000000	1.536865	1.023441	4.729948	4.840308	0.084479	20.851495	-7.362979	0.000000	0.126897	-0.063541	-2.373704	0.235660	-0.084509	-2.522060	0.208479	-0.154493	-2.522060	0.145030	-0.154493	-2.076991	0.117836	-0.129573	-1.928634	0.072509	-0.098425	-1.780278	0.906411	-0.718788	-13.201829	0.000000	0.000000	11.144291	1.508768	14.946856	14.093208	-9.798847	86.773000	23.619962	40.558125	-0.552505	-4.135080	-7.614149	-13.353534	22.986174	37.170962	83.300197	-8.906842	1.630677
1.593220	3.697852	-2.671544	92.356507	0.199494	0.937173	0.623950	-0.994427	0.211500	-3.991466	2.015677	0.035180	22.931145	8.105306	0.000000	1.326720	0.988429	4.774013	4.739292	0.082716	20.744319	-7.413481	0.000000	0.124377	-0.070898	-2.385721	0.230981	-0.094294	-2.534828	0.204340	-0.172381	-2.534828	0.142151	-0.172381	-2.087506	0.115497	-0.144575	-1.938398	0.071069	-0.109821	-1.789290	0.888415	-0.802012	-13.268663	0.000000	0.000000	10.657602	1.515833	15.151217	14.398609	-9.683130	88.896259	23.513265	38.735085	-0.803455	-4.557170	-7.881887	-13.271912	22.319284	37.337598	83.696357	-8.968956	1.729293
1.610169	3.705758	-2.578562	92.367997	0.199721	0.937331	0.623324	-1.173588	0.244206	-3.734051	1.930369	0.033691	22.775385	7.605445	0.000000	1.155120	0.949159	4.653688	4.680996	0.081699	20.694036	-7.234050	0.000000	0.121420	-0.077589	-2.393123	0.225488	-0.103194	-2.542693	0.199480	-0.188651	-2.542693	0.138771	-0.188651	-2.093983	0.112750	-0.158220	-1.944412	0.069379	-0.120186	-1.794842	0.867289	-0.877705	-13.309832	0.000000	0.000000	10.183008	1.502558	15.331697	14.690294	-9.577906	90.877331	23.403633	36.960211	-1.040392	-4.961478	-8.083363	-13.197220	21.736133	37.475321	84.043268	-8.992473	1.885019
1.627119	3.711211	-2.500355	92.363388	0.199906	0.937497	0.622819	-1.314318	0.269333	-3.402830	1.854703	0.032371	22.615544	7.048623	0.000000	1.003476	0.927125	4.740201	4.615960	0.080564	20.559230	-7.404053	0.000000	0.119383	-0.083389	-2.393149	0.221707	-0.110907	-2.542721	0.196135	-0.202752	-2.542721	0.136443	-0.202752	-2.094005	0.110859	-0.170047	-1.944434	0.068216	-0.129170	-1.794862	0.852743	-0.943314	-13.309977	0.000000	0.000000	9.733202	1.445399	15.474206	14.956389	-9.479297	92.688649	23.287375	35.277600	-1.216841	-5.360610	-8.213489	-13.116783	21.224317	37.557404	84.441486	-8.949291	2.086485
1.644068	3.714584	-2.433889	92.375491	0.200038	0.937686	0.622440	-1.430939	0.291757	-3.073213	1.770771	0.030906	22.457975	6.499074	0.000000	0.889523	0.905326	4.715825	4.581497	0.079962	20.474316	-7.411973	0.000000	0.117466	-0.088664	-2.390824	0.218146	-0.117923	-2.540251	0.192985	-0.215578	-2.540251	0.134252	-0.215578	-2.091971	0.109079	-0.180804	-1.942545	0.067120	-0.137340	-1.793118	0.839048	-1.002985	-13.297046	0.000000	0.000000	9.305921	1.330194	15.553200	15.182602	-9.392998	94.253381	23.193987	33.719804	-1.435168	-5.718910	-8.241711	-13.073579	20.968017	37.578471	84.650566	-8.915008	2.328199
1.661017	3.712541	-2.375498	92.389231	0.200126	0.937897	0.622158	-1.524144	0.306815	-2.716478	1.690392	0.029503	22.316270	5.938929	0.000000	0.792129	0.894081	4.749861	4.545809	0.079339	20.371657	-7.516512	0.000000	0.115105	-0.093688	-2.387130	0.213761	-0.124605	-2.536325	0.189106	-0.227794	-2.536325	0.131553	-0.227794	-2.088738	0.106886	-0.191049	-1.939543	0.065771	-0.145123	-1.790347	0.822182	-1.059821	-13.276499	0.000000	0.000000	8.902346	1.151869	15.579550	15.374282	-9.303885	95.600905	23.087158	32.306850	-1.620949	-6.057801	-8.208687	-13.035057	20.792170	37.548220	84.873354	-8.825082	2.610807
1.677966	3.708526	-2.323402	92.419361	0.200178	0.938130	0.621946	-1.606464	0.319876	-2.384652	1.600708	0.027938	22.195604	5.429829	0.000000	0.724677	0.876154	4.568774	4.543070	0.079292	20.368393	-7.283395	0.000000	0.112442	-0.098337	-2.383491	0.208816	-0.130788	-2.532459	0.184731	-0.239097	-2.532459	0.128510	-0.239097	-2.085555	0.104414	-0.200529	-1.936586	0.064249	-0.152324	-1.787618	0.803163	-1.112410	-13.256262	0.000000	0.000000	8.499649	0.909242	15.557458	15.490279	-9.232109	96.502017	23.013811	31.245802	-1.835302	-6.301039	-8.098423	-13.038553	20.868051	37.466397	84.869652	-8.755833	2.897365
